<?xml version="1.0" encoding="utf-8"?>
<!-- Generator: Adobe Illustrator 27.9.0, SVG Export Plug-In . SVG Version: 6.00 Build 0)  -->
<svg version="1.1" id="Lager_1" xmlns="http://www.w3.org/2000/svg" xmlns:xlink="http://www.w3.org/1999/xlink" x="0px" y="0px"
	 viewBox="0 0 595.3 569.9" style="enable-background:new 0 0 595.3 569.9;" xml:space="preserve">
<style type="text/css">
	.st0{fill:#020203;}
</style>
<path class="st0" d="M575.8,193.4l-100-170c-2.2-3.8-6.3-6.2-10.8-6.2H130c-4.4,0-8.5,2.3-10.8,6.2l-100,170
	c-2.6,4.4-2.2,9.9,0.9,14l262.5,340c0,0,0,0.1,0.1,0.1c0.3,0.3,0.5,0.7,0.8,1c0,0,0.1,0.1,0.1,0.1c0.3,0.3,0.5,0.5,0.8,0.7
	c0.1,0.1,0.2,0.1,0.3,0.2c0.7,0.5,1.4,1,2.1,1.4c0.1,0,0.2,0.1,0.3,0.1c0.3,0.2,0.7,0.3,1,0.4c0.1,0,0.1,0,0.2,0.1
	c0.4,0.1,0.8,0.3,1.2,0.4c0.1,0,0.2,0,0.3,0.1c0.3,0.1,0.7,0.1,1,0.2c0.1,0,0.2,0,0.3,0c0.4,0,0.8,0.1,1.2,0.1c0.1,0,0.1,0,0.2,0
	c0,0,0,0,0,0h0c0,0,0,0,0,0c0.4,0,0.8,0,1.3-0.1c0.1,0,0.2,0,0.3,0c0.3,0,0.7-0.1,1-0.2c0.1,0,0.2,0,0.2,0c0.4-0.1,0.8-0.2,1.2-0.3
	c0.1,0,0.2-0.1,0.2-0.1c0.3-0.1,0.6-0.2,0.9-0.4c0.1,0,0.2-0.1,0.3-0.1c0.4-0.2,0.7-0.4,1.1-0.6c0,0,0.1,0,0.1-0.1
	c0.3-0.2,0.6-0.4,0.9-0.6c0.1-0.1,0.2-0.1,0.3-0.2c0.3-0.2,0.6-0.5,0.8-0.7c0,0,0.1-0.1,0.1-0.1c0.3-0.3,0.6-0.6,0.8-0.9
	c0,0,0.1-0.1,0.1-0.1l272.5-340C578,203.6,578.4,197.9,575.8,193.4z M216.9,187.3L293,58.5l83.9,128.8H216.9z M382.9,212.3
	l-89.9,284.2l-81.5-284.2H382.9z M312.3,42.3h136.3l-51.4,130.4L312.3,42.3z M197.3,171.4L146.4,42.3h127.2L197.3,171.4z
	 M176.6,187.3H51.9l74.7-127.1L176.6,187.3z M185.6,212.3l76.9,268.2l-207-268.2H185.6z M409.2,212.3H539L324.6,479.8L409.2,212.3z
	 M418.4,187.3l50.1-127.1l74.7,127.1H418.4z"/>
</svg>
